<mxfile host="app.diagrams.net" modified="2022-11-10T22:55:01.862Z" agent="5.0 (Windows NT 10.0; Win64; x64) AppleWebKit/537.36 (KHTML, like Gecko) Chrome/107.0.0.0 Safari/537.36" etag="mpT2rzpcU1goPMhx4G2l" version="20.5.3" type="github">
  <diagram id="C5RBs43oDa-KdzZeNtuy" name="Page-1">
    <mxGraphModel dx="2377" dy="827" grid="1" gridSize="10" guides="1" tooltips="1" connect="1" arrows="1" fold="1" page="1" pageScale="1" pageWidth="827" pageHeight="1169" math="0" shadow="0">
      <root>
        <object label="" id="WIyWlLk6GJQsqaUBKTNV-0">
          <mxCell />
        </object>
        <mxCell id="WIyWlLk6GJQsqaUBKTNV-1" parent="WIyWlLk6GJQsqaUBKTNV-0" />
        <mxCell id="hisnNMxdgOu7HTBm7NUZ-10" style="edgeStyle=orthogonalEdgeStyle;rounded=0;orthogonalLoop=1;jettySize=auto;html=1;exitX=0.5;exitY=1;exitDx=0;exitDy=0;entryX=0.5;entryY=0;entryDx=0;entryDy=0;" edge="1" parent="WIyWlLk6GJQsqaUBKTNV-1" source="WIyWlLk6GJQsqaUBKTNV-3" target="hisnNMxdgOu7HTBm7NUZ-1">
          <mxGeometry relative="1" as="geometry" />
        </mxCell>
        <mxCell id="hisnNMxdgOu7HTBm7NUZ-11" style="edgeStyle=orthogonalEdgeStyle;rounded=0;orthogonalLoop=1;jettySize=auto;html=1;exitX=0.5;exitY=1;exitDx=0;exitDy=0;entryX=0.5;entryY=0;entryDx=0;entryDy=0;" edge="1" parent="WIyWlLk6GJQsqaUBKTNV-1" source="WIyWlLk6GJQsqaUBKTNV-3" target="hisnNMxdgOu7HTBm7NUZ-6">
          <mxGeometry relative="1" as="geometry" />
        </mxCell>
        <mxCell id="hisnNMxdgOu7HTBm7NUZ-12" style="edgeStyle=orthogonalEdgeStyle;rounded=0;orthogonalLoop=1;jettySize=auto;html=1;exitX=0.5;exitY=1;exitDx=0;exitDy=0;entryX=0.5;entryY=0;entryDx=0;entryDy=0;" edge="1" parent="WIyWlLk6GJQsqaUBKTNV-1" source="WIyWlLk6GJQsqaUBKTNV-3" target="hisnNMxdgOu7HTBm7NUZ-7">
          <mxGeometry relative="1" as="geometry" />
        </mxCell>
        <mxCell id="hisnNMxdgOu7HTBm7NUZ-13" style="edgeStyle=orthogonalEdgeStyle;rounded=0;orthogonalLoop=1;jettySize=auto;html=1;exitX=0.5;exitY=1;exitDx=0;exitDy=0;entryX=0.5;entryY=0;entryDx=0;entryDy=0;" edge="1" parent="WIyWlLk6GJQsqaUBKTNV-1" source="WIyWlLk6GJQsqaUBKTNV-3" target="hisnNMxdgOu7HTBm7NUZ-9">
          <mxGeometry relative="1" as="geometry" />
        </mxCell>
        <mxCell id="WIyWlLk6GJQsqaUBKTNV-3" value="&lt;b&gt;Input percent composition&amp;nbsp;of the waste you want to designate (p):&lt;/b&gt;" style="rounded=1;whiteSpace=wrap;html=1;fontSize=12;glass=0;strokeWidth=1;shadow=0;" parent="WIyWlLk6GJQsqaUBKTNV-1" vertex="1">
          <mxGeometry x="270" y="150" width="270" height="90" as="geometry" />
        </mxCell>
        <mxCell id="hisnNMxdgOu7HTBm7NUZ-19" style="edgeStyle=orthogonalEdgeStyle;rounded=0;orthogonalLoop=1;jettySize=auto;html=1;exitX=0.5;exitY=1;exitDx=0;exitDy=0;entryX=0.5;entryY=0;entryDx=0;entryDy=0;" edge="1" parent="WIyWlLk6GJQsqaUBKTNV-1" source="hisnNMxdgOu7HTBm7NUZ-1" target="hisnNMxdgOu7HTBm7NUZ-14">
          <mxGeometry relative="1" as="geometry" />
        </mxCell>
        <mxCell id="hisnNMxdgOu7HTBm7NUZ-1" value="&lt;b&gt;Input concentration for tox test (c):&lt;/b&gt;&lt;br&gt;Fish LC50 (mg/L)" style="whiteSpace=wrap;html=1;aspect=fixed;" vertex="1" parent="WIyWlLk6GJQsqaUBKTNV-1">
          <mxGeometry x="40" y="340" width="120" height="120" as="geometry" />
        </mxCell>
        <mxCell id="hisnNMxdgOu7HTBm7NUZ-20" style="edgeStyle=orthogonalEdgeStyle;rounded=0;orthogonalLoop=1;jettySize=auto;html=1;exitX=0.5;exitY=1;exitDx=0;exitDy=0;entryX=0.5;entryY=0;entryDx=0;entryDy=0;" edge="1" parent="WIyWlLk6GJQsqaUBKTNV-1" source="hisnNMxdgOu7HTBm7NUZ-6" target="hisnNMxdgOu7HTBm7NUZ-15">
          <mxGeometry relative="1" as="geometry" />
        </mxCell>
        <mxCell id="hisnNMxdgOu7HTBm7NUZ-6" value="&lt;b&gt;Input concentration for tox test (c):&lt;/b&gt;&lt;br&gt;Oral Rat LD50 (mg/L)" style="whiteSpace=wrap;html=1;aspect=fixed;" vertex="1" parent="WIyWlLk6GJQsqaUBKTNV-1">
          <mxGeometry x="240" y="340" width="120" height="120" as="geometry" />
        </mxCell>
        <mxCell id="hisnNMxdgOu7HTBm7NUZ-21" value="" style="edgeStyle=orthogonalEdgeStyle;rounded=0;orthogonalLoop=1;jettySize=auto;html=1;" edge="1" parent="WIyWlLk6GJQsqaUBKTNV-1" source="hisnNMxdgOu7HTBm7NUZ-7" target="hisnNMxdgOu7HTBm7NUZ-16">
          <mxGeometry relative="1" as="geometry" />
        </mxCell>
        <mxCell id="hisnNMxdgOu7HTBm7NUZ-7" value="&lt;b&gt;Input concentration for tox test (c):&lt;/b&gt;&lt;br&gt;Inhalation Rat LC50 (mg/L)" style="whiteSpace=wrap;html=1;aspect=fixed;" vertex="1" parent="WIyWlLk6GJQsqaUBKTNV-1">
          <mxGeometry x="440" y="340" width="120" height="120" as="geometry" />
        </mxCell>
        <mxCell id="hisnNMxdgOu7HTBm7NUZ-22" style="edgeStyle=orthogonalEdgeStyle;rounded=0;orthogonalLoop=1;jettySize=auto;html=1;exitX=0.5;exitY=1;exitDx=0;exitDy=0;entryX=0.5;entryY=0;entryDx=0;entryDy=0;" edge="1" parent="WIyWlLk6GJQsqaUBKTNV-1" source="hisnNMxdgOu7HTBm7NUZ-9" target="hisnNMxdgOu7HTBm7NUZ-17">
          <mxGeometry relative="1" as="geometry" />
        </mxCell>
        <mxCell id="hisnNMxdgOu7HTBm7NUZ-9" value="&lt;b&gt;Input concentration for tox test (c):&lt;/b&gt;&lt;br&gt;Dermal Rabbit LD50 (mg/kg)" style="whiteSpace=wrap;html=1;aspect=fixed;" vertex="1" parent="WIyWlLk6GJQsqaUBKTNV-1">
          <mxGeometry x="640" y="340" width="120" height="120" as="geometry" />
        </mxCell>
        <mxCell id="hisnNMxdgOu7HTBm7NUZ-14" value="evaluate (c) for the toxic category specific to Fish LC50 to determine the toxic category:" style="rounded=1;whiteSpace=wrap;html=1;" vertex="1" parent="WIyWlLk6GJQsqaUBKTNV-1">
          <mxGeometry x="5" y="520" width="190" height="410" as="geometry" />
        </mxCell>
        <mxCell id="hisnNMxdgOu7HTBm7NUZ-15" value="&lt;span style=&quot;color: rgb(0, 0, 0); font-family: Helvetica; font-size: 12px; font-style: normal; font-variant-ligatures: normal; font-variant-caps: normal; font-weight: 400; letter-spacing: normal; orphans: 2; text-align: center; text-indent: 0px; text-transform: none; widows: 2; word-spacing: 0px; -webkit-text-stroke-width: 0px; background-color: rgb(248, 249, 250); text-decoration-thickness: initial; text-decoration-style: initial; text-decoration-color: initial; float: none; display: inline !important;&quot;&gt;evaluate (c) for the toxic category specific to Oral Rat LD50 to determine the toxic category:&lt;/span&gt;" style="rounded=1;whiteSpace=wrap;html=1;" vertex="1" parent="WIyWlLk6GJQsqaUBKTNV-1">
          <mxGeometry x="205" y="520" width="190" height="410" as="geometry" />
        </mxCell>
        <mxCell id="hisnNMxdgOu7HTBm7NUZ-16" value="&lt;br&gt;&lt;span style=&quot;color: rgb(0, 0, 0); font-family: Helvetica; font-size: 12px; font-style: normal; font-variant-ligatures: normal; font-variant-caps: normal; font-weight: 400; letter-spacing: normal; orphans: 2; text-align: center; text-indent: 0px; text-transform: none; widows: 2; word-spacing: 0px; -webkit-text-stroke-width: 0px; background-color: rgb(248, 249, 250); text-decoration-thickness: initial; text-decoration-style: initial; text-decoration-color: initial; float: none; display: inline !important;&quot;&gt;evaluate (c) for the toxic category specific to Inhalation Rabbit LD50 to determine the toxic category:&lt;/span&gt;&lt;br&gt;" style="rounded=1;whiteSpace=wrap;html=1;" vertex="1" parent="WIyWlLk6GJQsqaUBKTNV-1">
          <mxGeometry x="405" y="520" width="190" height="410" as="geometry" />
        </mxCell>
        <mxCell id="hisnNMxdgOu7HTBm7NUZ-17" value="&lt;br&gt;&lt;span style=&quot;color: rgb(0, 0, 0); font-family: Helvetica; font-size: 12px; font-style: normal; font-variant-ligatures: normal; font-variant-caps: normal; font-weight: 400; letter-spacing: normal; orphans: 2; text-align: center; text-indent: 0px; text-transform: none; widows: 2; word-spacing: 0px; -webkit-text-stroke-width: 0px; background-color: rgb(248, 249, 250); text-decoration-thickness: initial; text-decoration-style: initial; text-decoration-color: initial; float: none; display: inline !important;&quot;&gt;evaluate (c) for the toxic category specific to Dermal Rabbit LD50 to determine the toxic category:&lt;/span&gt;&lt;br&gt;" style="rounded=1;whiteSpace=wrap;html=1;" vertex="1" parent="WIyWlLk6GJQsqaUBKTNV-1">
          <mxGeometry x="605" y="520" width="190" height="410" as="geometry" />
        </mxCell>
        <mxCell id="hisnNMxdgOu7HTBm7NUZ-24" value="3 inputs required by user:&lt;br&gt;&lt;b&gt;t &lt;/b&gt;= tox test&lt;br&gt;&lt;b&gt;c &lt;/b&gt;= concentration of test&lt;br&gt;&lt;b&gt;p &lt;/b&gt;= waste percent composition of waste&amp;nbsp;" style="shape=parallelogram;perimeter=parallelogramPerimeter;whiteSpace=wrap;html=1;fixedSize=1;fillColor=#E2E8C8;strokeColor=#82b366;" vertex="1" parent="WIyWlLk6GJQsqaUBKTNV-1">
          <mxGeometry x="-50" y="40" width="210" height="120" as="geometry" />
        </mxCell>
        <mxCell id="hisnNMxdgOu7HTBm7NUZ-31" style="edgeStyle=orthogonalEdgeStyle;rounded=0;orthogonalLoop=1;jettySize=auto;html=1;exitX=0.5;exitY=1;exitDx=0;exitDy=0;entryX=0.5;entryY=0;entryDx=0;entryDy=0;" edge="1" parent="WIyWlLk6GJQsqaUBKTNV-1" source="hisnNMxdgOu7HTBm7NUZ-28" target="WIyWlLk6GJQsqaUBKTNV-3">
          <mxGeometry relative="1" as="geometry" />
        </mxCell>
        <mxCell id="hisnNMxdgOu7HTBm7NUZ-28" value="&lt;b&gt;Input most severe tox test (t):&lt;/b&gt;&lt;br&gt;Choose &lt;b&gt;one &lt;/b&gt;of the following tests&lt;br&gt;Fish LC50 (mg/L)&lt;br&gt;Oral Rat LD50 (mg/L)&lt;br&gt;Inhalation Rat LC50 (mg/L)&lt;br&gt;Dermal Rabbit LD50 (mg/kg)" style="rounded=1;whiteSpace=wrap;html=1;fontSize=12;glass=0;strokeWidth=1;shadow=0;" vertex="1" parent="WIyWlLk6GJQsqaUBKTNV-1">
          <mxGeometry x="270" y="20" width="270" height="90" as="geometry" />
        </mxCell>
        <mxCell id="hisnNMxdgOu7HTBm7NUZ-32" value="and/or" style="text;html=1;align=center;verticalAlign=middle;resizable=0;points=[];autosize=1;strokeColor=none;fillColor=none;" vertex="1" parent="WIyWlLk6GJQsqaUBKTNV-1">
          <mxGeometry x="170" y="385" width="60" height="30" as="geometry" />
        </mxCell>
        <mxCell id="hisnNMxdgOu7HTBm7NUZ-35" value="and/or" style="text;html=1;align=center;verticalAlign=middle;resizable=0;points=[];autosize=1;strokeColor=none;fillColor=none;" vertex="1" parent="WIyWlLk6GJQsqaUBKTNV-1">
          <mxGeometry x="370" y="385" width="60" height="30" as="geometry" />
        </mxCell>
        <mxCell id="hisnNMxdgOu7HTBm7NUZ-36" value="and/or" style="text;html=1;align=center;verticalAlign=middle;resizable=0;points=[];autosize=1;strokeColor=none;fillColor=none;" vertex="1" parent="WIyWlLk6GJQsqaUBKTNV-1">
          <mxGeometry x="570" y="385" width="60" height="30" as="geometry" />
        </mxCell>
      </root>
    </mxGraphModel>
  </diagram>
</mxfile>
